# xmcd
#
# Track frame offsets:
#       150
#       13400
#       29061
#       42013
#       56463
#       66261
#       76274
#       97029
#       109962
#       128044
#       141524
#       153856
#       168667
#       180872
#       190612
#       203240
#       215170
#       231206
#
# Disc length: 3247 seconds
#
# Revision: 0
# Processed by: cddbd v1.4PL0 Copyright (c) Steve Scherf et al.
# Submitted via: WhereIsIt 3.25
#
DISCID=020cad12
DTITLE=Pure Country cd2
DYEAR=1900
DGENRE=
TTITLE0=Divorce - Tammy wynette
TTITLE1=Delta dawn - Alex Harvey
TTITLE2=The man that turned my mama on - Tanya Tucker
TTITLE3=Drivin' my life away - Eddie Rabbitt
TTITLE4=I'm sorry - Brenda Lee
TTITLE5=Engine engine 9 - Roger Miller
TTITLE6=A woman's touch - Stella Parton
TTITLE7=Send me the pillow that you dream on - Johnny Tillotson
TTITLE8=Half the way - Crystal Gayle
TTITLE9=Baby's got her blue jeans on - Mel Mcdaniel
TTITLE10=Behind closed doors - Charlie Rich
TTITLE11=Dancin' cowboys - The Bellamy Brothers
TTITLE12=Midnight oil - Barbara Mandrell
TTITLE13=Ballad of a teenage queen -Johnny Cash
TTITLE14=Top of the world - Lynn Anderson
TTITLE15=oklahoma hills - Hank Thompson
TTITLE16=My elusive dreams - Tammy Wynette and David Houston
TTITLE17=Reuben James - Kenny Rogers
EXTD=
EXTT0=
EXTT1=
EXTT2=
EXTT3=
EXTT4=
EXTT5=
EXTT6=
EXTT7=
EXTT8=
EXTT9=
EXTT10=
EXTT11=
EXTT12=
EXTT13=
EXTT14=
EXTT15=
EXTT16=
EXTT17=
PLAYORDER=
